{
    "accessors" : [
        {
            "bufferView" : 0,
            "componentType" : 5123,
            "count" : 3456,
            "max" : [
                2303
            ],
            "min" : [
                0
            ],
            "type" : "SCALAR"
        },
        {
            "bufferView" : 1,
            "componentType" : 5126,
            "count" : 2304,
            "max" : [
                1.25,
                0.25,
                1.25
            ],
            "min" : [
                -1.25,
                -0.25,
                -1.25
            ],
            "type" : "VEC3"
        },
        {
            "bufferView" : 2,
            "componentType" : 5126,
            "count" : 2304,
            "max" : [
                0.9639958739280701,
                0.9657869338989258,
                0.9639959335327148
            ],
            "min" : [
                -0.9639958739280701,
                -0.9657869338989258,
                -0.9639958739280701
            ],
            "type" : "VEC3"
        },
        {
            "bufferView" : 3,
            "componentType" : 5123,
            "count" : 47616,
            "max" : [
                7937
            ],
            "min" : [
                0
            ],
            "type" : "SCALAR"
        },
        {
            "bufferView" : 4,
            "componentType" : 5126,
            "count" : 7938,
            "max" : [
                0.9880269765853882,
                0.998428463935852,
                0.9880270957946777
            ],
            "min" : [
                -0.9880265593528748,
                -0.9984285235404968,
                -0.9880266785621643
            ],
            "type" : "VEC3"
        },
        {
            "bufferView" : 5,
            "componentType" : 5126,
            "count" : 7938,
            "max" : [
                1.0,
                1.0,
                1.0
            ],
            "min" : [
                -1.0,
                -1.0,
                -1.0
            ],
            "type" : "VEC3"
        },
        {
            "bufferView" : 6,
            "componentType" : 5123,
            "count" : 2880,
            "max" : [
                481
            ],
            "min" : [
                0
            ],
            "type" : "SCALAR"
        },
        {
            "bufferView" : 7,
            "componentType" : 5126,
            "count" : 482,
            "max" : [
                1.000000238418579,
                1.0,
                1.0000003576278687
            ],
            "min" : [
                -0.9999998211860657,
                -1.0,
                -1.0
            ],
            "type" : "VEC3"
        },
        {
            "bufferView" : 8,
            "componentType" : 5126,
            "count" : 482,
            "max" : [
                1.0,
                1.0,
                1.0
            ],
            "min" : [
                -1.0,
                -1.0,
                -1.0
            ],
            "type" : "VEC3"
        },
        {
            "bufferView" : 9,
            "componentType" : 5123,
            "count" : 240,
            "max" : [
                41
            ],
            "min" : [
                0
            ],
            "type" : "SCALAR"
        },
        {
            "bufferView" : 10,
            "componentType" : 5126,
            "count" : 42,
            "max" : [
                0.9510578513145447,
                1.0,
                0.9999999403953552
            ],
            "min" : [
                -0.9510578513145447,
                -1.0,
                -0.9999999403953552
            ],
            "type" : "VEC3"
        },
        {
            "bufferView" : 11,
            "componentType" : 5126,
            "count" : 42,
            "max" : [
                0.9510483145713806,
                1.0,
                1.0
            ],
            "min" : [
                -0.9510483145713806,
                -1.0,
                -1.0
            ],
            "type" : "VEC3"
        },
        {
            "bufferView" : 12,
            "componentType" : 5123,
            "count" : 240,
            "max" : [
                41
            ],
            "min" : [
                0
            ],
            "type" : "SCALAR"
        },
        {
            "bufferView" : 13,
            "componentType" : 5126,
            "count" : 42,
            "max" : [
                0.9510578513145447,
                1.0,
                0.9999999403953552
            ],
            "min" : [
                -0.9510578513145447,
                -1.0,
                -0.9999999403953552
            ],
            "type" : "VEC3"
        },
        {
            "bufferView" : 14,
            "componentType" : 5126,
            "count" : 42,
            "max" : [
                0.9510483145713806,
                1.0,
                1.0
            ],
            "min" : [
                -0.9510483145713806,
                -1.0,
                -1.0
            ],
            "type" : "VEC3"
        },
        {
            "bufferView" : 15,
            "componentType" : 5126,
            "count" : 2,
            "max" : [
                4.966666666666667
            ],
            "min" : [
                0.0
            ],
            "type" : "SCALAR"
        },
        {
            "bufferView" : 16,
            "componentType" : 5126,
            "count" : 6,
            "max" : [
                2.0,
                0.0,
                -0.0
            ],
            "min" : [
                -0.2358190268278122,
                0.0,
                -0.0
            ],
            "type" : "VEC3"
        },
        {
            "bufferView" : 17,
            "componentType" : 5126,
            "count" : 2,
            "max" : [
                4.966666666666667
            ],
            "min" : [
                1.6333333333333333
            ],
            "type" : "SCALAR"
        },
        {
            "bufferView" : 18,
            "componentType" : 5126,
            "count" : 6,
            "max" : [
                0.9669909477233887,
                0.0,
                -0.0
            ],
            "min" : [
                0.0,
                0.0,
                -0.0
            ],
            "type" : "VEC3"
        },
        {
            "bufferView" : 19,
            "componentType" : 5126,
            "count" : 2,
            "max" : [
                4.966666666666667
            ],
            "min" : [
                1.6333333333333333
            ],
            "type" : "SCALAR"
        },
        {
            "bufferView" : 20,
            "componentType" : 5126,
            "count" : 6,
            "max" : [
                0.6000000238418579,
                0.6000000238418579,
                0.6000000238418579
            ],
            "min" : [
                0.0,
                0.0,
                0.0
            ],
            "type" : "VEC3"
        }
    ],
    "animations" : [
        {
            "channels" : [
                {
                    "sampler" : 0,
                    "target" : {
                        "node" : 6,
                        "path" : "translation"
                    }
                },
                {
                    "sampler" : 1,
                    "target" : {
                        "node" : 6,
                        "path" : "scale"
                    }
                }
            ],
            "name" : "TorusAction",
            "samplers" : [
                {
                    "input" : 17,
                    "interpolation" : "CUBICSPLINE",
                    "output" : 18
                },
                {
                    "input" : 19,
                    "interpolation" : "CUBICSPLINE",
                    "output" : 20
                }
            ]
        },
        {
            "channels" : [
                {
                    "sampler" : 0,
                    "target" : {
                        "node" : 4,
                        "path" : "translation"
                    }
                }
            ],
            "name" : "SphereAction",
            "samplers" : [
                {
                    "input" : 15,
                    "interpolation" : "CUBICSPLINE",
                    "output" : 16
                }
            ]
        }
    ],
    "asset" : {
        "generator" : "Khronos Blender glTF 2.0 exporter",
        "version" : "2.0"
    },
    "bufferViews" : [
        {
            "buffer" : 0,
            "byteLength" : 6912,
            "byteOffset" : 0,
            "target" : 34963
        },
        {
            "buffer" : 0,
            "byteLength" : 27648,
            "byteOffset" : 6912,
            "target" : 34962
        },
        {
            "buffer" : 0,
            "byteLength" : 27648,
            "byteOffset" : 34560,
            "target" : 34962
        },
        {
            "buffer" : 0,
            "byteLength" : 95232,
            "byteOffset" : 62208,
            "target" : 34963
        },
        {
            "buffer" : 0,
            "byteLength" : 95256,
            "byteOffset" : 157440,
            "target" : 34962
        },
        {
            "buffer" : 0,
            "byteLength" : 95256,
            "byteOffset" : 252696,
            "target" : 34962
        },
        {
            "buffer" : 0,
            "byteLength" : 5760,
            "byteOffset" : 347952,
            "target" : 34963
        },
        {
            "buffer" : 0,
            "byteLength" : 5784,
            "byteOffset" : 353712,
            "target" : 34962
        },
        {
            "buffer" : 0,
            "byteLength" : 5784,
            "byteOffset" : 359496,
            "target" : 34962
        },
        {
            "buffer" : 0,
            "byteLength" : 480,
            "byteOffset" : 365280,
            "target" : 34963
        },
        {
            "buffer" : 0,
            "byteLength" : 504,
            "byteOffset" : 365760,
            "target" : 34962
        },
        {
            "buffer" : 0,
            "byteLength" : 504,
            "byteOffset" : 366264,
            "target" : 34962
        },
        {
            "buffer" : 0,
            "byteLength" : 480,
            "byteOffset" : 366768,
            "target" : 34963
        },
        {
            "buffer" : 0,
            "byteLength" : 504,
            "byteOffset" : 367248,
            "target" : 34962
        },
        {
            "buffer" : 0,
            "byteLength" : 504,
            "byteOffset" : 367752,
            "target" : 34962
        },
        {
            "buffer" : 0,
            "byteLength" : 8,
            "byteOffset" : 368256
        },
        {
            "buffer" : 0,
            "byteLength" : 72,
            "byteOffset" : 368264
        },
        {
            "buffer" : 0,
            "byteLength" : 8,
            "byteOffset" : 368336
        },
        {
            "buffer" : 0,
            "byteLength" : 72,
            "byteOffset" : 368344
        },
        {
            "buffer" : 0,
            "byteLength" : 8,
            "byteOffset" : 368416
        },
        {
            "buffer" : 0,
            "byteLength" : 72,
            "byteOffset" : 368424
        }
    ],
    "buffers" : [
        {
            "byteLength" : 368496,
            "uri" : "planet.bin"
        }
    ],
    "meshes" : [
        {
            "name" : "Torus",
            "primitives" : [
                {
                    "attributes" : {
                        "NORMAL" : 2,
                        "POSITION" : 1
                    },
                    "indices" : 0
                }
            ]
        },
        {
            "name" : "Sphere.001",
            "primitives" : [
                {
                    "attributes" : {
                        "NORMAL" : 5,
                        "POSITION" : 4
                    },
                    "indices" : 3
                }
            ]
        },
        {
            "name" : "Sphere",
            "primitives" : [
                {
                    "attributes" : {
                        "NORMAL" : 8,
                        "POSITION" : 7
                    },
                    "indices" : 6
                }
            ]
        },
        {
            "name" : "Icosphere",
            "primitives" : [
                {
                    "attributes" : {
                        "NORMAL" : 11,
                        "POSITION" : 10
                    },
                    "indices" : 9
                }
            ]
        },
        {
            "name" : "Icosphere.001",
            "primitives" : [
                {
                    "attributes" : {
                        "NORMAL" : 14,
                        "POSITION" : 13
                    },
                    "indices" : 12
                }
            ]
        }
    ],
    "nodes" : [
        {
            "name" : "Camera",
            "rotation" : [
                0.6106343865394592,
                0.34532687067985535,
                0.20082375407218933,
                0.6837725043296814
            ],
            "scale" : [
                1.0,
                0.9999999403953552,
                1.0
            ],
            "translation" : [
                1.2042808532714844,
                1.1065821647644043,
                4.889744758605957
            ]
        },
        {
            "mesh" : 3,
            "name" : "Icosphere",
            "translation" : [
                7.667421817779541,
                0.0,
                -0.0
            ]
        },
        {
            "mesh" : 4,
            "name" : "Icosphere.001",
            "translation" : [
                7.750744342803955,
                -2.3597636222839355,
                0.4858105480670929
            ]
        },
        {
            "name" : "Lamp",
            "rotation" : [
                -0.5137718319892883,
                0.4454287886619568,
                0.6685996651649475,
                0.30100858211517334
            ],
            "translation" : [
                4.076245307922363,
                5.903861999511719,
                -1.0054539442062378
            ]
        },
        {
            "mesh" : 2,
            "name" : "Sphere",
            "scale" : [
                0.699999988079071,
                0.699999988079071,
                0.699999988079071
            ],
            "translation" : [
                2.006711483001709,
                0.0,
                -0.0
            ]
        },
        {
            "mesh" : 1,
            "name" : "Sphere.001"
        },
        {
            "mesh" : 0,
            "name" : "Torus",
            "rotation" : [
                0.0,
                0.0,
                -0.7071068286895752,
                0.7071068286895752
            ],
            "scale" : [
                0.30000001192092896,
                0.30000001192092896,
                0.30000001192092896
            ],
            "translation" : [
                0.9669909477233887,
                0.0,
                -0.0
            ]
        }
    ],
    "scene" : 0,
    "scenes" : [
        {
            "name" : "Scene",
            "nodes" : [
                4,
                6,
                2,
                5,
                1,
                3,
                0
            ]
        }
    ]
}
